<?xml version="1.0" encoding="UTF-8"?>
<svg xmlns="http://www.w3.org/2000/svg" xmlns:xlink="http://www.w3.org/1999/xlink" viewBox="0 0 48 48" width="48px" height="48px">
<g id="surface5624219">
<path style=" stroke:none;fill-rule:nonzero;fill:rgb(90.588236%,29.803923%,23.529412%);fill-opacity:1;" d="M 36.460938 34.921875 C 36.382812 34.894531 36.308594 34.855469 36.242188 34.800781 C 35.148438 33.917969 34.351562 32.71875 33.542969 31.585938 C 32.710938 30.402344 31.753906 29.324219 30.84375 28.199219 C 30.355469 27.601562 29.886719 26.992188 29.417969 26.371094 C 29.117188 25.828125 28.800781 25.292969 28.472656 24.757812 C 28.660156 24.441406 28.835938 24.121094 29.007812 23.792969 C 29.007812 23.804688 29.015625 23.804688 29.015625 23.8125 C 29.945312 22.527344 30.890625 21.253906 31.882812 20.015625 C 33.648438 17.8125 35.457031 15.65625 37.179688 13.433594 C 35.417969 11.136719 33.742188 8.785156 32.316406 6.273438 C 31.914062 7.105469 31.554688 7.960938 31.21875 8.820312 C 30.636719 10.304688 30.019531 11.765625 29.296875 13.191406 C 28.273438 15.214844 27.179688 17.222656 26.007812 19.171875 L 26.042969 19.238281 C 25.960938 19.351562 25.875 19.460938 25.789062 19.574219 C 25.613281 19.761719 25.433594 19.941406 25.265625 20.117188 C 25.023438 19.742188 24.777344 19.359375 24.523438 18.984375 C 24.488281 18.929688 24.460938 18.882812 24.421875 18.824219 C 22.921875 16.3125 21.488281 13.753906 20.136719 11.15625 C 19.621094 10.164062 19.03125 9.207031 18.476562 8.222656 C 18.019531 7.40625 17.476562 6.523438 17.25 5.605469 C 15.375 6.617188 13.527344 7.761719 12.046875 9.300781 C 12.328125 9.449219 12.589844 9.628906 12.835938 9.835938 C 13.753906 10.601562 14.476562 11.585938 15.207031 12.535156 C 16.023438 13.59375 16.882812 14.605469 17.710938 15.648438 C 19.40625 17.804688 21.019531 20.015625 22.695312 22.191406 C 22.707031 22.179688 22.714844 22.164062 22.726562 22.152344 C 22.949219 22.492188 23.175781 22.828125 23.4375 23.128906 C 23.371094 23.25 23.304688 23.382812 23.242188 23.503906 C 23.082031 23.738281 22.929688 23.972656 22.78125 24.207031 C 22.773438 24.195312 22.761719 24.1875 22.753906 24.167969 C 21.382812 26.101562 19.921875 27.957031 18.347656 29.71875 C 16.742188 31.527344 15.027344 33.609375 12.890625 34.847656 C 12.945312 34.96875 12.957031 35.109375 12.917969 35.230469 C 13.761719 36.09375 14.898438 36.65625 15.695312 37.574219 C 16.433594 38.417969 17.089844 39.335938 17.851562 40.164062 C 18.628906 38.070312 19.902344 36.167969 21.226562 34.378906 C 22.546875 32.585938 23.914062 30.824219 25.238281 29.035156 C 25.472656 28.761719 25.6875 28.472656 25.902344 28.179688 C 26.148438 27.910156 26.398438 27.648438 26.617188 27.367188 C 27 27.777344 27.355469 28.210938 27.777344 28.585938 C 28.6875 29.765625 29.558594 30.964844 30.367188 32.210938 C 32.035156 34.800781 33.195312 37.648438 34.707031 40.332031 C 35.597656 38.804688 36.609375 37.285156 37.085938 35.585938 C 36.917969 35.476562 36.757812 35.324219 36.582031 35.15625 C 36.535156 35.082031 36.488281 35.007812 36.460938 34.921875 Z M 36.460938 34.921875 "/>
<path style=" stroke:none;fill-rule:nonzero;fill:rgb(0%,0%,0%);fill-opacity:1;" d="M 36.515625 33.449219 L 36.507812 33.449219 C 35.757812 32.710938 35.15625 31.828125 34.546875 30.964844 C 33.710938 29.773438 32.765625 28.707031 31.847656 27.582031 C 31.117188 26.679688 30.414062 25.761719 29.738281 24.824219 C 30.710938 23.476562 31.695312 22.125 32.738281 20.820312 C 34.601562 18.488281 36.523438 16.199219 38.351562 13.835938 C 38.503906 13.640625 38.597656 13.339844 38.429688 13.125 C 36.441406 10.546875 34.539062 7.894531 32.980469 5.035156 C 32.992188 5.015625 33 4.996094 33.007812 4.988281 C 32.859375 4.734375 32.726562 4.460938 32.605469 4.191406 C 32.539062 4.078125 32.484375 3.976562 32.417969 3.863281 C 32.410156 3.871094 32.390625 3.871094 32.382812 3.882812 C 32.242188 3.957031 32.117188 4.03125 31.996094 4.105469 C 31.96875 4.117188 31.949219 4.125 31.921875 4.132812 C 31.808594 4.527344 31.648438 4.921875 31.445312 5.269531 C 31.453125 5.289062 31.460938 5.296875 31.472656 5.316406 C 30.308594 7.546875 29.570312 10.003906 28.453125 12.261719 C 27.488281 14.210938 26.4375 16.132812 25.320312 18.019531 C 23.933594 15.683594 22.613281 13.320312 21.355469 10.921875 C 21.09375 10.414062 20.8125 9.917969 20.53125 9.414062 C 20.070312 8.773438 19.667969 8.101562 19.367188 7.378906 C 19.105469 6.929688 18.84375 6.460938 18.636719 5.980469 C 18.289062 5.390625 18 4.78125 17.699219 4.171875 C 17.585938 4.164062 17.476562 4.179688 17.351562 4.238281 C 15.101562 5.410156 12.871094 6.742188 11.117188 8.597656 C 11.007812 8.71875 10.960938 8.859375 10.960938 8.992188 C 11.417969 9.609375 11.859375 10.246094 12.28125 10.882812 C 12.816406 11.351562 13.265625 11.933594 13.6875 12.46875 C 14.4375 13.414062 15.214844 14.351562 15.957031 15.300781 C 17.015625 16.648438 18.085938 18 19.132812 19.359375 C 20.109375 20.632812 21.039062 21.945312 22.023438 23.210938 C 20.710938 25.085938 19.285156 26.898438 17.773438 28.621094 C 16.867188 29.664062 15.917969 30.695312 14.945312 31.679688 C 14.109375 32.523438 13.210938 33.320312 12.179688 33.910156 C 12.160156 33.917969 12.132812 33.929688 12.113281 33.9375 L 11.539062 34.238281 C 11.15625 34.433594 11.183594 34.828125 11.410156 35.082031 C 11.417969 35.175781 11.445312 35.269531 11.492188 35.34375 C 12.328125 36.535156 13.621094 37.21875 14.664062 38.195312 C 15.789062 39.261719 16.574219 40.640625 17.726562 41.699219 C 18.066406 42.007812 18.582031 41.839844 18.703125 41.410156 C 19.386719 39.027344 20.839844 36.890625 22.3125 34.921875 C 23.765625 32.972656 25.246094 31.039062 26.691406 29.082031 C 27.382812 29.972656 28.050781 30.882812 28.695312 31.808594 C 29.679688 33.234375 30.570312 34.726562 31.351562 36.273438 C 32.117188 37.78125 32.820312 39.328125 33.648438 40.808594 C 33.835938 41.15625 34.039062 41.503906 34.246094 41.839844 C 34.472656 42.214844 35.0625 42.207031 35.269531 41.8125 C 36.367188 39.742188 37.867188 37.753906 38.382812 35.429688 C 38.117188 35.203125 37.875 34.976562 37.648438 34.753906 C 37.265625 34.378906 36.824219 33.9375 36.515625 33.449219 Z M 34.734375 40.332031 C 33.226562 37.660156 32.0625 34.800781 30.394531 32.210938 C 29.585938 30.964844 28.714844 29.765625 27.804688 28.585938 C 27.382812 28.210938 27.027344 27.777344 26.644531 27.367188 C 26.417969 27.648438 26.175781 27.917969 25.929688 28.179688 C 25.726562 28.472656 25.5 28.761719 25.265625 29.035156 C 23.933594 30.824219 22.574219 32.578125 21.253906 34.378906 C 19.929688 36.160156 18.65625 38.0625 17.878906 40.164062 C 17.117188 39.335938 16.453125 38.417969 15.722656 37.574219 C 14.925781 36.65625 13.789062 36.09375 12.945312 35.230469 C 12.992188 35.109375 12.976562 34.96875 12.917969 34.847656 C 15.066406 33.617188 16.773438 31.527344 18.375 29.71875 C 19.941406 27.957031 21.414062 26.101562 22.78125 24.167969 C 22.789062 24.179688 22.800781 24.1875 22.808594 24.207031 C 22.960938 23.972656 23.109375 23.738281 23.269531 23.503906 C 23.335938 23.382812 23.398438 23.25 23.464844 23.128906 C 23.203125 22.828125 22.976562 22.492188 22.753906 22.152344 C 22.742188 22.164062 22.734375 22.179688 22.726562 22.191406 C 21.046875 20.023438 19.433594 17.804688 17.738281 15.648438 C 16.914062 14.597656 16.050781 13.585938 15.234375 12.535156 C 14.503906 11.585938 13.78125 10.613281 12.863281 9.835938 C 12.617188 9.628906 12.355469 9.449219 12.074219 9.300781 C 13.554688 7.761719 15.402344 6.617188 17.277344 5.605469 C 17.503906 6.523438 18.046875 7.40625 18.507812 8.222656 C 19.058594 9.195312 19.640625 10.164062 20.164062 11.15625 C 21.515625 13.753906 22.949219 16.3125 24.449219 18.824219 C 24.488281 18.882812 24.523438 18.929688 24.554688 18.984375 C 24.804688 19.359375 25.050781 19.734375 25.292969 20.117188 C 25.460938 19.929688 25.640625 19.753906 25.820312 19.574219 C 25.902344 19.460938 25.988281 19.351562 26.070312 19.238281 L 26.035156 19.171875 C 27.207031 17.210938 28.304688 15.214844 29.324219 13.191406 C 30.046875 11.765625 30.65625 10.304688 31.246094 8.820312 C 31.585938 7.960938 31.941406 7.105469 32.34375 6.273438 C 33.769531 8.785156 35.457031 11.136719 37.210938 13.433594 C 35.476562 15.65625 33.675781 17.820312 31.914062 20.015625 C 30.917969 21.261719 29.972656 22.527344 29.042969 23.8125 C 29.042969 23.804688 29.035156 23.804688 29.035156 23.792969 C 28.875 24.121094 28.695312 24.441406 28.5 24.757812 C 28.835938 25.285156 29.148438 25.820312 29.445312 26.371094 C 29.90625 26.992188 30.382812 27.601562 30.871094 28.199219 C 31.78125 29.324219 32.738281 30.394531 33.570312 31.585938 C 34.378906 32.71875 35.175781 33.917969 36.273438 34.800781 C 36.335938 34.855469 36.414062 34.894531 36.488281 34.921875 C 36.515625 35.007812 36.5625 35.082031 36.636719 35.15625 C 36.804688 35.324219 36.964844 35.476562 37.144531 35.585938 C 36.628906 37.285156 35.617188 38.804688 34.734375 40.332031 Z M 34.734375 40.332031 "/>
</g>
</svg>
