<?xml version="1.0" standalone="no"?>
<!DOCTYPE svg PUBLIC "-//W3C//DTD SVG 20010904//EN"
 "http://www.w3.org/TR/2001/REC-SVG-20010904/DTD/svg10.dtd">
<svg version="1.0" xmlns="http://www.w3.org/2000/svg"
 width="172.000000pt" height="37.000000pt" viewBox="0 0 172.000000 37.000000"
 preserveAspectRatio="xMidYMid meet">

<g transform="translate(0.000000,37.000000) scale(0.100000,-0.100000)"
fill="#000000" stroke="none">
<path d="M715 325 c-17 -14 -37 -22 -47 -19 -20 6 -22 0 -9 -24 6 -11 2 -46
-13 -101 -25 -95 -31 -90 -42 34 -7 71 -30 115 -61 115 -16 0 -16 -4 1 -38 12
-25 28 -145 30 -237 l1 -41 45 -2 45 -2 2 66 c4 97 29 194 60 226 34 36 26 54
-12 23z"/>
<path d="M88 307 c-24 -31 -25 -37 -20 -149 5 -128 1 -121 73 -133 26 -5 40
-2 52 10 45 44 26 118 -30 123 -30 3 -32 5 -40 65 l-8 62 34 5 c35 5 53 27 29
34 -56 18 -66 16 -90 -17z m72 -202 c8 0 16 -8 18 -17 3 -14 -3 -18 -22 -18
-24 0 -26 4 -25 38 1 26 3 31 7 17 4 -11 14 -20 22 -20z"/>
<path d="M746 300 c-36 -40 -36 -41 -36 -129 0 -106 13 -151 43 -151 58 0 97
13 97 31 0 15 -8 19 -40 19 l-40 0 0 40 c0 31 4 40 18 40 9 0 24 4 32 10 12 7
12 12 -4 29 -11 12 -25 21 -33 21 -8 0 -13 12 -13 34 0 33 1 34 44 37 l44 4 4
-117 c3 -76 9 -122 17 -132 14 -17 62 -20 96 -7 12 5 36 3 58 -5 37 -13 39
-12 63 13 23 24 24 33 24 142 0 142 -5 161 -36 161 l-24 0 0 -135 c0 -128 -1
-135 -20 -135 -19 0 -20 7 -22 103 -1 56 -2 116 -2 132 -1 25 -5 30 -26 30
l-25 0 -3 -130 c-2 -123 -8 -144 -34 -145 -4 0 -9 62 -10 138 -3 134 -4 137
-25 140 -16 2 -23 -2 -23 -12 0 -20 -14 -20 -30 -1 -22 26 -56 17 -94 -25z"/>
<path d="M1174 329 c-40 -11 -44 -26 -44 -170 l0 -117 30 -12 c41 -17 72 -16
103 5 27 17 27 17 27 151 l0 133 -37 10 c-21 6 -40 11 -43 10 -3 0 -19 -5 -36
-10z m56 -152 c0 -108 -4 -124 -27 -106 -9 8 -13 40 -13 110 0 92 1 99 20 99
19 0 20 -7 20 -103z"/>
<path d="M1363 333 c-13 -2 -32 -16 -43 -30 -17 -22 -20 -40 -20 -139 0 -105
1 -114 22 -128 29 -21 82 -20 113 0 24 16 25 19 25 143 l0 127 -35 17 c-20 9
-37 16 -38 16 -1 -1 -12 -4 -24 -6z m35 -147 c3 -111 0 -128 -23 -120 -12 5
-15 26 -15 116 0 99 2 109 18 106 15 -3 17 -17 20 -102z"/>
<path d="M223 183 c7 -146 13 -168 44 -156 9 3 13 23 13 59 0 30 4 54 9 54 19
0 29 -27 29 -73 -1 -26 1 -50 5 -53 12 -12 46 8 56 34 l9 27 1 -27 c1 -23 6
-28 26 -28 24 0 25 3 25 55 0 48 2 55 20 55 18 0 20 -7 20 -55 0 -52 1 -55 24
-55 25 0 25 0 28 123 4 139 -8 180 -54 185 -34 4 -87 -23 -90 -46 -2 -19 -4
-54 -7 -122 -1 -28 -4 -40 -10 -32 -4 7 -6 46 -3 86 l4 73 -34 21 c-22 14 -52
22 -78 22 l-43 0 6 -147z m82 91 c16 -17 13 -68 -6 -88 -13 -14 -17 -6 -25 52
-7 55 1 65 31 36z m175 -56 c0 -41 -3 -48 -20 -48 -18 0 -20 7 -20 54 0 35 5
56 13 59 19 6 27 -13 27 -65z"/>
<path d="M1468 179 c2 -85 5 -156 7 -158 2 -2 23 -6 47 -8 88 -10 119 53 99
206 -5 41 -16 80 -24 88 -8 8 -41 17 -73 20 l-59 5 3 -153z m98 -12 c1 -106
-1 -117 -27 -117 -18 0 -19 9 -19 113 0 63 3 117 7 121 4 3 14 -1 22 -9 12
-12 16 -39 17 -108z"/>
</g>
</svg>
